<?xml version="1.0"?>
<svg width="750" height="150" xmlns="http://www.w3.org/2000/svg" xmlns:svg="http://www.w3.org/2000/svg">
 <g class="layer">
  <title>Layer 1</title>
  <g id="svg_18">
   <g id="svg_9">
    <g id="svg_2">
     <g fill="#000000" id="svg_3" transform="translate(0 516) scale(0.1 -0.1)">
      <path d="m665.27,5095.83c-19.98,-4.76 -34.69,-21.14 -34.69,-38.85c0,-7.66 -0.83,-9.25 -3.33,-6.87c-4.99,4.76 -9.99,3.96 -17.48,-3.44c-8.32,-7.66 -8.88,-16.91 -1.39,-24.57c10.82,-11.1 30.53,-4.76 30.53,9.51c0,7.4 3.05,7.4 10.54,-0.26c11.38,-11.37 8.32,-16.92 -12.49,-23c-32.74,-9.51 -115.71,-20.87 -154,-21.14c-6.94,0 -7.77,-1.06 -7.77,-9.25c0,-5.55 1.39,-9.25 3.61,-9.51c29.41,-1.85 117.65,9.51 155.67,20.08c7.49,2.12 14.15,3.97 14.7,3.97c0.56,0 0.83,-7.93 0.83,-17.71l0,-17.97l-21.92,-20.09c-48.28,-44.66 -112.93,-84.3 -162.88,-99.89c-60.21,-18.76 -147.07,-16.91 -205.62,4.23c-7.76,2.64 -13.04,3.17 -15.26,1.58c-24.69,-17.7 -52.16,-39.11 -52.16,-40.7c0,-1.58 7.77,-3.7 62.43,-15.59c52.72,-11.63 112.94,-9.25 163.72,6.61c54.94,17.44 75.19,26.69 122.09,56.55c13.6,8.73 25.25,15.33 26.08,14.54c2.22,-1.85 -37.74,-39.38 -62.15,-58.41c-83.53,-64.21 -152.07,-90.64 -235.87,-90.64c-44.95,0 -80.47,6.61 -120.15,21.93c-19.7,7.67 -20.25,7.93 -25.8,2.91c-6.38,-5.29 -58,-69.77 -58,-72.41c0,-0.79 43.29,-1.06 96.57,-1.06c76.86,0.27 101.28,1.32 121.26,4.76c64.65,11.36 134.02,43.6 196.46,90.91c10.54,7.93 19.7,13.74 20.25,12.95c2.5,-2.12 -33.02,-40.44 -67.98,-73.21c-55.77,-52.59 -123.2,-93.02 -182.58,-109.67c-9.72,-2.64 -17.49,-5.55 -17.49,-6.61c0,-2.64 52.17,-43.34 56.61,-44.39c5,-1.06 43.01,20.61 63.82,36.47c23.31,17.44 69.1,62.89 89.91,89.32c9.71,11.89 30.8,39.91 46.89,62.11c45.79,62.36 105.72,140.32 125.42,162.79c9.72,11.1 20.82,24.58 24.7,30.13c8.05,11.62 11.65,12.42 11.65,2.37c0,-5.55 3.89,-11.1 15.54,-21.67c49.4,-45.98 76.87,-93.81 88.8,-154.6c5.27,-28.54 8.88,-135.04 4.44,-139.27c-1.94,-1.85 -5,-1.32 -9.99,1.06l-7.22,3.43l-1.11,55.5c-0.83,43.08 -2.49,60.52 -6.66,78.23c-8.04,31.97 -22.47,67.12 -35.24,85.62c-13.31,18.76 -42.17,48.89 -47.17,48.89c-5.55,0 -41.07,-34.88 -59.93,-58.93c-28.31,-35.68 -53,-91.44 -65.49,-147.2c-7.22,-32.51 -7.22,-145.09 0,-175.75c4.44,-18.49 13.32,-49.94 17.48,-62.36c1.39,-3.44 -1.94,-4.5 -18.87,-6.08c-22.75,-1.85 -35.24,-8.19 -48.56,-23.79l-7.49,-9.25l-19.7,1.32c-15.54,1.33 -22.2,0.53 -34.13,-3.7c-28.3,-10.3 -49.67,-30.65 -62.44,-59.99l-6.93,-15.85l-15.54,-1.85c-32.19,-3.97 -63.82,-26.69 -79.64,-57.09c-17.48,-34.09 -13.6,-77.69 9.99,-105.18c10.82,-12.42 39.13,-30.12 48.28,-30.12c3.89,0 6.94,-2.38 8.88,-7.4c5.55,-14.54 12.49,-25.11 22.76,-33.83c5.54,-5.02 11.65,-8.99 13.04,-8.99c1.66,0 2.77,-1.05 2.77,-2.37c0,-1.33 -5.83,-3.7 -12.76,-5.29c-14.99,-3.7 -23.87,-8.46 -38.02,-21.14c-14.15,-12.42 -20.53,-25.11 -24.69,-47.84c-3.89,-22.19 0.27,-46.77 14.15,-80.86c10.82,-26.7 47.45,-91.44 71.59,-126.86l18.87,-27.22l27.19,-0.26c14.99,0 26.92,0.79 26.36,2.11c-0.55,1.06 -4.16,7.93 -8.04,15.07c-15.82,28.54 -27.48,85.62 -27.48,135.31l0,29.6l11.94,2.9c38.01,9.52 60.49,21.41 85.46,45.72c36.35,35.41 56.89,86.42 62.43,153.81l1.95,26.43l4.16,-11.9c2.22,-6.6 4.44,-27.48 5.27,-46.24c1.67,-40.17 -2.77,-61.58 -21.36,-97.79c-16.1,-31.97 -59.11,-72.93 -86.86,-82.98c-4.16,-1.58 -7.49,-3.96 -7.49,-5.55c0,-7.4 79.64,-126.85 105.72,-158.03l6.94,-8.72l25.25,0.79l25.25,0.79l-11.93,23.26c-24.7,48.36 -39.4,105.44 -36.91,144.56l0.84,14.27l17.48,6.34c25.53,9.25 50.22,31.98 63.54,58.4c9.16,17.97 10.55,22.73 11.38,46.25c0.83,19.29 0,30.39 -3.61,42.81c-2.77,9.52 -4.16,17.71 -3.33,18.5c0.83,0.8 10.27,-5.02 21.09,-12.95c46.9,-33.82 111.27,-56.29 124.59,-43.6c5.55,5.28 3.89,9.51 -10.82,24.84c-26.64,28.01 -37.74,50.21 -23.86,47.57c52.99,-10.84 48,-12.95 65.2,26.96c19.71,45.45 24.42,59.46 32.19,95.4c9.16,40.96 11.38,68.97 7.22,90.12c-3.33,17.44 -9.44,31.71 -13.6,31.71c-1.11,0 -3.05,-7.4 -3.61,-16.39c-1.66,-19.02 -16.92,-62.1 -31.63,-90.11c-7.77,-15.07 -30.8,-50.22 -43.01,-66.34c-1.11,-1.32 -7.21,-0.26 -14.15,2.12c-19.15,7.4 -19.7,8.46 -10.82,21.14c11.1,15.33 33.57,54.44 31.35,54.44c-1.11,0 -7.77,-3.96 -15.26,-8.98c-7.21,-4.76 -19.15,-11.37 -26.64,-14.54c-15.54,-6.34 -51.89,-12.95 -54.94,-9.78c-1.11,1.06 4.44,7.4 12.21,14.27c7.77,6.87 20.53,20.09 28.03,29.6c15.26,19.29 37.18,53.12 35.51,54.97c-0.83,0.53 -15.54,-7.93 -32.74,-18.76c-17.2,-10.84 -44.95,-26.69 -61.88,-34.89c-16.65,-8.45 -32.46,-16.91 -34.96,-19.02c-6.11,-5.03 -13.04,-4.23 -16.37,1.58c-3.61,6.61 -3.61,10.84 0,10.84c1.66,0 14.15,6.6 27.74,14.53c61.61,36.47 101.56,71.09 137.08,119.72c11.93,16.12 23.59,29.6 25.81,29.6c8.88,0 43.29,-19.56 59.1,-33.3c18.87,-16.92 25.25,-26.96 31.64,-50.48c5.82,-21.14 5.82,-81.92 0.27,-113.37c-8.6,-47.57 -31.08,-100.69 -60.77,-143.24l-15.26,-21.67l3.89,-10.83c3.05,-7.93 4.16,-29.08 4.71,-85.1c0.84,-70.3 1.39,-75.06 6.94,-85.36c7.49,-13.48 21.37,-26.43 34.69,-32.24c5.82,-2.38 11.1,-6.87 11.93,-9.78c1.94,-7.67 18.03,-98.31 18.03,-101.48c0,-1.85 10.27,-2.91 27.75,-2.91l27.75,0l0,11.36c0.28,6.08 3.05,29.87 6.38,53.12l6.39,41.76l9.43,4.76c14.15,6.87 30.52,22.99 37.18,36.73c5.28,11.36 5.83,17.44 6.66,85.36l0.84,73.2l19.97,-0.52c30.25,-0.8 48.01,4.22 65.77,17.97c12.48,9.77 17.2,11.89 26.36,11.89c12.49,0 32.74,7.93 42.45,16.65c8.05,6.87 17.21,23.52 17.21,30.39c0,3.7 4.16,6.87 15.54,11.1c30.24,11.89 43.84,29.33 44.12,56.82c0,15.59 0,15.85 10.82,21.14c25.25,12.42 34.96,37 25.53,65.01c-4.16,12.16 -4.44,14.01 -0.56,17.97c12.49,12.95 16.93,45.72 8.6,61.31c-4.44,7.93 -3.6,12.95 1.95,12.95c1.66,0 10.82,3.7 20.53,8.2c43.01,20.08 62.16,57.87 58.27,113.9l-1.94,25.37l10.82,-1.32c18.04,-2.38 41.07,12.95 34.69,22.72c-2.22,3.44 -2.22,8.46 -0.28,17.18c2.5,11.9 2.22,13.22 -4.44,19.56c-3.88,3.96 -17.48,13.74 -30.52,21.67c-13.05,7.93 -23.59,15.86 -23.87,17.44c0,1.59 1.95,4.49 4.17,6.34c6.65,5.29 10.54,21.94 8.6,35.42c-3.89,23.78 -38.57,49.95 -71.59,53.64c-14.99,1.85 -16.38,3.7 -6.66,9.78c21.09,13.22 37.46,39.64 39.68,64.49c1.38,19.82 -2.22,25.37 -10.27,15.85c-5.27,-6.6 -47.17,-36.47 -50.78,-36.47c-0.83,0 0.83,5.55 4.16,12.42c4.44,9.52 5.28,15.6 4.17,26.7c-2.22,19.02 -5.28,21.67 -12.49,10.57c-3.33,-4.76 -18.04,-19.56 -33.02,-32.77c-25.81,-22.73 -33.02,-32.25 -42.18,-54.44c-2.5,-6.35 -4.44,-7.4 -14.43,-7.4c-21.09,0 -38.85,-12.16 -46.89,-32.25c-3.33,-8.45 -6.11,-11.36 -14.71,-14c-20.81,-6.87 -32.47,-22.73 -32.47,-44.93c0,-6.61 1.95,-15.59 4.17,-20.08c4.16,-7.14 3.88,-8.2 -1.95,-15.6c-8.88,-11.62 -10.26,-39.64 -2.49,-53.64l5.55,-10.31l-6.11,-10.84c-8.05,-14.53 -9.71,-39.11 -3.33,-48.36c2.5,-3.7 3.89,-7.4 3.33,-8.19c-2.22,-1.85 -49.95,6.34 -79.08,13.74c-44.95,11.37 -111.55,37.79 -111.55,44.4c0,12.16 -7.77,24.31 -29.41,47.04c-13.32,13.74 -32.75,34.62 -43.29,46.78c-10.82,11.89 -20.26,21.67 -21.64,21.67c-1.11,0 -1.39,-14.8 -0.56,-33.04c1.39,-31.97 1.11,-33.03 -4.44,-33.03c-3.05,0 -8.88,1.06 -12.49,2.38l-6.66,2.38l-1.66,61.04c-2.78,83.25 -13.32,133.2 -38.57,181.03l-11.1,21.14l6.38,5.03c5.83,4.49 9.44,4.75 26.92,3.43c22.75,-2.11 21.36,-3.43 29.69,25.37c2.5,8.72 7.21,17.97 11.1,21.14c6.38,5.82 6.66,6.87 4.16,23.26c-1.39,9.51 -2.77,26.69 -2.77,38.58c0,38.06 -14.71,55.77 -53.56,65.54c-9.16,2.12 -16.65,4.23 -16.93,4.76c-0.27,0.53 -3.88,7.4 -8.04,15.59c-4.16,7.93 -11.66,19.29 -16.65,24.84c-8.6,9.52 -10.55,10.31 -25.81,10.84c-8.88,0.53 -20.25,-0.26 -24.69,-1.32zm61.88,-42.55c0.83,-6.08 -0.84,-7.14 -18.87,-12.42c-10.83,-3.44 -24.14,-7.93 -29.42,-10.31c-24.97,-11.36 -6.38,10.57 19.7,22.99c19.43,9.25 27.48,9.25 28.59,-0.26zm70.2,-70.56c1.39,-3.97 2.5,-9.52 1.94,-12.42c-0.83,-4.76 -2.77,-5.55 -15.26,-5.55c-7.77,0 -15.26,-1.06 -16.65,-2.12c-3.05,-3.17 6.38,-9.25 18.87,-12.42c6.94,-1.85 10.82,-4.49 11.93,-8.72c3.05,-10.83 1.67,-14 -6.66,-16.91c-6.66,-2.38 -8.32,-4.49 -8.32,-11.1c0,-12.95 -5.83,-34.62 -9.16,-34.62c-4.99,0 -30.25,12.16 -36.91,17.97c-3.33,2.64 -8.6,9.51 -11.65,15.33c-3.05,5.55 -8.88,13.21 -13.04,16.91c-14.15,12.42 -18.04,26.43 -8.33,29.86c6.66,2.65 14.99,-6.07 19.71,-20.61c3.33,-9.78 6.66,-15.06 10.54,-16.12c9.71,-2.91 12.76,5.29 12.76,33.83c0,25.37 0,25.9 7.77,29.6c4.17,2.11 14.71,3.96 23.59,4.22c14.71,0 16.09,-0.52 18.87,-7.13zm-131.53,-178.65c18.04,-22.73 31.91,-52.06 36.91,-78.23c3.33,-17.7 3.6,-63.69 0.27,-68.71c-2.77,-4.23 -11.37,7.14 -28.58,38.85c-5.82,10.84 -11.1,17.71 -11.93,15.86c-2.77,-6.87 6.38,-46.78 16.1,-68.98c5.27,-12.42 8.88,-23.25 8.04,-24.05c-0.83,-0.79 -5.82,1.06 -11.1,4.23c-8.88,5.29 -9.43,5.29 -6.66,0.53c4.72,-8.46 28.86,-28.81 43.85,-37.26c20.81,-11.9 55.22,-25.64 78.25,-31.19c10.82,-2.9 19.98,-6.08 19.98,-7.4c0,-4.49 -31.36,-61.57 -43.85,-79.81c-28.58,-41.49 -54.38,-67.65 -87.4,-89.06c-20.82,-13.48 -51.34,-28.54 -57.72,-28.54c-4.72,0 -13.6,11.89 -13.6,17.97c0,1.32 8.33,7.66 18.87,14.54c42.18,27.48 87.41,78.22 114.05,127.38c6.1,11.62 11.37,22.46 11.37,24.04c0,2.12 -6.93,2.65 -23.58,1.85c-63.55,-3.96 -111,22.73 -135.41,75.85c-23.04,50.48 -18.6,110.47 12.48,163.85c10.82,18.5 35.8,50.21 39.41,50.21c1.66,0 10.82,-9.77 20.25,-21.93zm649.87,-161.74c4.16,-3.96 3.88,-4.49 -0.83,-8.19c-3.06,-2.11 -9.16,-3.7 -13.32,-3.7c-9.16,0 -24.42,6.61 -24.42,10.84c0,8.19 30.24,8.98 38.57,1.05zm-436.21,-103.06c1.39,-8.73 -7.77,-16.65 -19.97,-17.71c-9.44,-0.79 -11.1,0 -11.94,4.76c-0.55,2.9 0.56,8.72 2.22,12.68c2.5,6.61 3.89,7.14 15.82,6.34c10.82,-0.52 13.32,-1.85 13.87,-6.07zm483.66,-11.1c4.99,-22.47 2.5,-57.62 -5.27,-71.62c-9.16,-17.18 -23.59,-30.92 -40.52,-38.59c-22.47,-10.04 -24.41,-9.51 -17.48,5.29c11.38,24.84 9.16,53.12 -6.66,80.07c-2.77,4.76 -4.44,9.52 -3.6,10.58c2.49,2.37 63.26,28.8 67.15,29.07c1.66,0.26 4.71,-6.35 6.38,-14.8zm-462.29,-34.36c21.37,-18.76 51.89,-38.05 88.24,-55.76c31.08,-15.06 48.56,-21.41 89.07,-31.45c19.7,-4.76 21.92,-7.66 13.04,-15.33c-8.32,-7.13 -14.42,-29.33 -11.37,-41.49c2.22,-8.98 1.94,-10.04 -2.78,-10.04c-3.33,0 -5.27,1.85 -5.27,5.28c0,21.67 -35.8,47.31 -65.76,47.57c-8.05,0 -14.71,1.06 -14.71,2.12c0,1.05 -6.1,8.72 -13.87,16.91c-17.49,18.76 -29.97,23.79 -58,22.99l-21.09,-0.53l-6.1,23.53c-7.49,28.01 -10.55,48.62 -7.77,48.62c1.11,0 8.6,-5.55 16.37,-12.42zm46.06,2.91c34.97,-14.01 114.33,-32.77 138.74,-32.77c12.21,0 14.99,-3.44 11.38,-13.22c-1.66,-4.75 -3.05,-13.21 -3.05,-18.76c0,-5.81 -0.56,-10.31 -1.11,-10.31c-0.56,0 -14.43,4.23 -31.08,9.52c-52.17,16.12 -105.17,43.07 -136.8,69.5c-9.43,7.67 -4.99,6.87 21.92,-3.96z" fill="url(#svg_8)" id="svg_4" transform="translate(0 -8.86835) translate(0 -17.7368)"/>
     </g>
    </g>
    <text fill="url(#svg_8)" font-family="Sans-serif" font-size="24" id="svg_1" stroke-width="0" text-anchor="start" transform="matrix(4.22011 0 0 4.22011 -990.389 -1093.81)" x="277.03" xml:space="preserve" y="286.29">InternVL</text>
   </g>
  </g>
 </g>
 <defs>
  <linearGradient id="svg_8" x1="0" x2="1" y1="0" y2="0">
   <stop id="jq_stop_8285" offset="0.02" stop-color="#ff7f00" stop-opacity="1"/>
   <stop id="jq_stop_8658" offset="1" stop-color="#ff0000" stop-opacity="1"/>
  </linearGradient>
 </defs>
</svg>