<svg width="1000" height="250" viewBox="0 0 1000 250" fill="none" xmlns="http://www.w3.org/2000/svg">
<g clip-path="url(#clip0_288_7866)">
<path d="M225.253 142.202C225.69 141.21 226.438 140.387 227.384 139.858L237.044 134.444L251.881 143.715C254.425 145.305 254.335 149.04 251.718 150.506L211.699 172.93L225.253 142.202Z" fill="#0D53DE"/>
<path d="M206.978 186.12C206.033 186.65 205.285 187.473 204.847 188.464L191.779 218.093L280.46 168.468C283.079 167.003 283.169 163.266 280.624 161.676L266.43 152.807L206.978 186.12Z" fill="#0D53DE"/>
<path d="M217.945 79.7156L232.519 88.8228C235.848 90.9027 237.143 95.1121 235.559 98.7033L185.696 211.751L177.149 178.205C176.599 176.047 176.785 173.767 177.678 171.727L217.945 79.7156Z" fill="#4788FF"/>
<path d="M206.78 80.6938C208.35 77.106 207.053 72.9095 203.732 70.8342L188.559 61.3534L164.162 117.102C163.104 119.518 162.884 122.218 163.535 124.773L172.349 159.369L206.78 80.6938Z" fill="#4788FF"/>
<path d="M155.086 113.308L177.394 62.3315C178.965 58.7437 177.667 54.5472 174.346 52.4719L159.173 42.9911L134.131 100.214L155.086 113.308Z" fill="#4788FF"/>
<path d="M125.7 94.9456L148.009 43.9692C149.579 40.3814 148.281 36.1849 144.96 34.1096L131.204 25.5136L106.006 82.6397L125.7 94.9456Z" fill="#4788FF"/>
<path d="M67.8443 71.3771C67.0918 68.4235 65.2293 65.8739 62.6445 64.2587L46.4741 54.1543L71.3871 151.934C72.3403 155.676 74.6996 158.906 77.9739 160.952L93.07 170.385L67.8443 71.3771Z" fill="#7EA7FF"/>
<path d="M74.5009 71.6674L99.4138 169.447C100.367 173.189 102.726 176.419 106.001 178.465L122.456 188.747L97.2301 89.7394C96.4776 86.7858 94.6152 84.2362 92.0303 82.621L74.5009 71.6674Z" fill="#7EA7FF"/>
<path d="M103.887 90.0297L128.8 187.81C129.753 191.551 132.112 194.781 135.386 196.827L151.842 207.109L126.616 108.102C125.863 105.148 124.001 102.598 121.416 100.983L103.887 90.0297Z" fill="#7EA7FF"/>
<path d="M133.272 108.392L158.185 206.172C159.139 209.913 161.498 213.143 164.772 215.189L179.987 224.697L154.762 125.689C154.009 122.736 152.147 120.186 149.562 118.571L133.272 108.392Z" fill="#7EA7FF"/>
</g>
<path d="M341.404 200.267V80H326V200.267H341.404Z" fill="url(#paint0_linear_288_7866)"/>
<path d="M362.966 155.508V200.267H378.37V155.508C378.37 151.227 379.5 147.199 381.775 143.407C384.056 139.606 387.092 136.57 390.893 134.289C394.685 132.014 398.713 130.884 402.994 130.884C407.275 130.884 411.303 132.014 415.095 134.289C418.891 136.567 421.856 139.596 424.003 143.386L424.01 143.397L424.016 143.407C426.291 147.199 427.421 151.227 427.421 155.508V200.267H442.825V155.508C442.825 148.369 441.005 141.755 437.367 135.688C433.864 129.495 429.011 124.576 422.821 120.942C416.752 117.301 410.136 115.48 402.994 115.48C395.85 115.48 389.171 117.302 382.974 120.94L382.966 120.945C376.908 124.579 372.059 129.496 368.428 135.681C364.788 141.75 362.966 148.366 362.966 155.508Z" fill="url(#paint1_linear_288_7866)"/>
<path d="M488.872 115.48V87.2931H473.468V115.48H456.517V130.884H473.468V200.267H488.872V130.884H505.824V115.48H488.872Z" fill="url(#paint2_linear_288_7866)"/>
<path fill-rule="evenodd" clip-rule="evenodd" d="M531.04 192.337C525.968 187.973 522.189 182.627 519.702 176.315C516.591 169.723 515.258 162.828 515.714 155.642L515.714 155.635L515.715 155.627C516.386 147.037 519.209 139.366 524.187 132.64L524.194 132.629C529.306 125.903 535.906 121.188 543.97 118.495C552.026 115.411 560.169 114.805 568.374 116.686C576.579 118.436 583.65 122.344 589.566 128.392C595.501 134.329 599.204 141.682 600.682 150.413L600.82 151.229L536.238 175.282C537.546 177.254 539.132 179.01 540.997 180.554C544.801 183.596 549.104 185.494 553.922 186.255C558.876 187.017 563.695 186.51 568.395 184.731L568.406 184.727L568.416 184.723C572.74 183.197 576.344 180.854 579.249 177.696L579.25 177.695C582.294 174.397 584.382 170.6 585.523 166.29L585.72 165.546H601.507L601.268 166.742C599.79 174.132 596.63 180.785 591.798 186.692C587.08 192.489 581.078 196.667 573.817 199.223C566.434 201.907 558.906 202.646 551.248 201.437L551.245 201.437C543.711 200.226 536.977 197.196 531.059 192.353L531.05 192.346L531.04 192.337ZM567.447 132.409L567.459 132.413L567.471 132.417C573.276 134.194 577.781 137.449 581.026 142.192L531.155 160.635C530.581 154.763 531.832 149.295 534.913 144.199C538.206 138.753 542.876 135.028 548.96 133.001L548.983 132.993L549.005 132.984C555.236 130.568 561.37 130.383 567.447 132.409Z" fill="url(#paint3_linear_288_7866)"/>
<path d="M657.523 130.884H661.086V115.48H657.523C650.003 115.48 643.005 117.228 636.547 120.726C634.403 121.887 632.398 123.191 630.533 124.637V115.48H615.13V200.267H630.533V155.311C630.533 150.769 631.728 146.692 634.112 143.051C636.647 139.25 639.936 136.277 643.992 134.121C648.182 131.963 652.687 130.884 657.523 130.884Z" fill="url(#paint4_linear_288_7866)"/>
<path d="M672.231 155.508V200.267H687.634V155.508C687.634 151.227 688.765 147.199 691.04 143.407C693.321 139.606 696.357 136.57 700.158 134.289C703.95 132.014 707.978 130.884 712.259 130.884C716.54 130.884 720.568 132.014 724.359 134.289C728.156 136.567 731.121 139.596 733.268 143.386L733.274 143.397L733.281 143.407C735.556 147.199 736.686 151.227 736.686 155.508V200.267H752.09V155.508C752.09 148.369 750.27 141.756 746.632 135.689C743.129 129.495 738.276 124.576 732.086 120.942C726.017 117.302 719.401 115.48 712.259 115.48C705.115 115.48 698.436 117.302 692.239 120.94L692.23 120.945C686.172 124.58 681.323 129.497 677.692 135.683C674.052 141.751 672.231 148.366 672.231 155.508Z" fill="url(#paint5_linear_288_7866)"/>
<path d="M813 200.267L857.899 80H841.573L806.392 174.051L771.211 80H754.885L799.785 200.267H813Z" fill="url(#paint6_linear_288_7866)"/>
<path fill-rule="evenodd" clip-rule="evenodd" d="M879.66 80V200.267H943.553V184.863H895.458V80H879.66Z" fill="url(#paint7_linear_288_7866)"/>
<defs>
<linearGradient id="paint0_linear_288_7866" x1="427.5" y1="6.25001" x2="508.876" y2="304.569" gradientUnits="userSpaceOnUse">
<stop stop-color="#477BFF"/>
<stop offset="1" stop-color="#0D53DE"/>
</linearGradient>
<linearGradient id="paint1_linear_288_7866" x1="427.5" y1="6.25001" x2="508.876" y2="304.569" gradientUnits="userSpaceOnUse">
<stop stop-color="#477BFF"/>
<stop offset="1" stop-color="#0D53DE"/>
</linearGradient>
<linearGradient id="paint2_linear_288_7866" x1="427.5" y1="6.25001" x2="508.876" y2="304.569" gradientUnits="userSpaceOnUse">
<stop stop-color="#477BFF"/>
<stop offset="1" stop-color="#0D53DE"/>
</linearGradient>
<linearGradient id="paint3_linear_288_7866" x1="427.5" y1="6.25001" x2="508.876" y2="304.569" gradientUnits="userSpaceOnUse">
<stop stop-color="#477BFF"/>
<stop offset="1" stop-color="#0D53DE"/>
</linearGradient>
<linearGradient id="paint4_linear_288_7866" x1="427.5" y1="6.25001" x2="508.876" y2="304.569" gradientUnits="userSpaceOnUse">
<stop stop-color="#477BFF"/>
<stop offset="1" stop-color="#0D53DE"/>
</linearGradient>
<linearGradient id="paint5_linear_288_7866" x1="427.5" y1="6.25001" x2="508.876" y2="304.569" gradientUnits="userSpaceOnUse">
<stop stop-color="#477BFF"/>
<stop offset="1" stop-color="#0D53DE"/>
</linearGradient>
<linearGradient id="paint6_linear_288_7866" x1="427.5" y1="6.25001" x2="508.876" y2="304.569" gradientUnits="userSpaceOnUse">
<stop stop-color="#477BFF"/>
<stop offset="1" stop-color="#0D53DE"/>
</linearGradient>
<linearGradient id="paint7_linear_288_7866" x1="427.5" y1="6.25001" x2="508.876" y2="304.569" gradientUnits="userSpaceOnUse">
<stop stop-color="#477BFF"/>
<stop offset="1" stop-color="#0D53DE"/>
</linearGradient>
<clipPath id="clip0_288_7866">
<rect width="240" height="200" fill="white" transform="translate(45 25)"/>
</clipPath>
</defs>
</svg>
